<svg width="64" height="64" viewBox="0 0 64 64" fill="none" xmlns="http://www.w3.org/2000/svg">
<path d="M44 53.6667H10.6667V18.6667H19H20.6667V17V8.66667H44V26.3333L45.6667 24.6667V7H20.6667H19L9 17V18.6667V55.3333H45.6667V36L44 37.6667V53.6667ZM19 9.33333V17H11.3333L19 9.33333Z" fill="#29303A"/>
<path d="M38.9998 25.3335H15.6665V27.0002H38.9998V25.3335Z" fill="#29303A"/>
<path d="M38.3332 32H15.6665V33.6667H36.6665L38.3332 32Z" fill="#29303A"/>
<path d="M15.6665 40.3332H29.9998L31.6665 38.6665H15.6665V40.3332Z" fill="#29303A"/>
<path d="M50.6668 22L45.6668 27L44.0002 28.6667L34.0002 38.6667L32.3335 40.3333L27.3335 45.3333V48.6667H30.6668L44.0002 35.3333L45.6668 33.6667L54.0002 25.3333L50.6668 22ZM44.0002 33.1667L32.1668 45L31.0002 43.8333L44.1668 30.6667L45.8335 29L50.1668 24.6667L51.3335 25.8333L45.6668 31.5L44.0002 33.1667Z" fill="#FF451D"/>
</svg>
