<svg width="64" height="64" viewBox="0 0 64 64" fill="none" xmlns="http://www.w3.org/2000/svg">
<path d="M32.0003 15.9453C28.6098 15.9453 25.2954 16.9485 22.4762 18.828C19.6571 20.7074 17.4599 23.3788 16.1624 26.5043C14.8648 29.6297 14.5254 33.0689 15.1868 36.3869C15.8483 39.7048 17.481 42.7526 19.8785 45.1447C22.2759 47.5368 25.3305 49.1659 28.6559 49.8259C31.9813 50.4859 35.4281 50.1471 38.5606 48.8525C41.693 47.5579 44.3704 45.3656 46.254 42.5527C48.1377 39.7399 49.1431 36.4329 49.1431 33.0499C49.1379 28.5151 47.3301 24.1675 44.1164 20.9609C40.9026 17.7543 36.5453 15.9505 32.0003 15.9453V15.9453ZM32.0003 48.4441C28.9488 48.4441 25.9658 47.5412 23.4286 45.8497C20.8914 44.1582 18.9139 41.7539 17.7461 38.941C16.5784 36.1281 16.2729 33.0328 16.8682 30.0467C17.4635 27.0605 18.9329 24.3175 21.0906 22.1646C23.2484 20.0117 25.9975 18.5456 28.9903 17.9516C31.9832 17.3576 35.0853 17.6624 37.9045 18.8276C40.7237 19.9927 43.1334 21.9658 44.8287 24.4974C46.524 27.0289 47.4289 30.0052 47.4289 33.0499C47.4241 37.1312 45.7971 41.044 42.9047 43.93C40.0123 46.8159 36.0907 48.4393 32.0003 48.4441V48.4441Z" fill="#29303A"/>
<path d="M32.8573 30.6415V22.7871H31.143V30.6415C30.7845 30.7693 30.4589 30.9749 30.1897 31.2435C29.9205 31.5121 29.7145 31.8369 29.5864 32.1946H23.4287V33.9051H29.5864C29.7302 34.3134 29.9755 34.6787 30.2992 34.9668C30.6229 35.2549 31.0146 35.4564 31.4376 35.5524C31.8605 35.6484 32.301 35.6359 32.7178 35.5159C33.1346 35.396 33.5141 35.1725 33.8208 34.8665C34.1275 34.5604 34.3515 34.1818 34.4717 33.7659C34.5919 33.3501 34.6045 32.9106 34.5083 32.4886C34.412 32.0665 34.2101 31.6757 33.9214 31.3527C33.6326 31.0297 33.2665 30.785 32.8573 30.6415V30.6415ZM32.0001 33.9051C31.8306 33.9051 31.6649 33.8549 31.5239 33.761C31.383 33.667 31.2731 33.5334 31.2082 33.3772C31.1434 33.2209 31.1264 33.0489 31.1595 32.883C31.1925 32.7171 31.2742 32.5647 31.394 32.4451C31.5139 32.3255 31.6666 32.2441 31.8329 32.2111C31.9992 32.1781 32.1715 32.195 32.3282 32.2597C32.4848 32.3245 32.6186 32.4341 32.7128 32.5747C32.807 32.7154 32.8573 32.8807 32.8573 33.0499C32.8573 33.2767 32.767 33.4942 32.6062 33.6546C32.4455 33.815 32.2275 33.9051 32.0001 33.9051Z" fill="#29303A"/>
<path d="M20.0004 32.1943H18.2861V33.9048H20.0004V32.1943Z" fill="#29303A"/>
<path d="M32.8569 45.0234H31.1426V46.7339H32.8569V45.0234Z" fill="#29303A"/>
<path d="M45.7143 32.1943H44V33.9048H45.7143V32.1943Z" fill="#29303A"/>
<path d="M32.8569 19.3662H31.1426V21.0767H32.8569V19.3662Z" fill="#29303A"/>
<path d="M54.2857 33.0501C54.2864 37.3668 53.0278 41.5904 50.6634 45.2055C48.2991 48.8206 44.9313 51.6709 40.9709 53.4086C37.0105 55.1462 32.6288 55.6961 28.3605 54.9911C24.0922 54.2862 20.1218 52.3568 16.9339 49.4385C13.7459 46.5202 11.4783 42.7392 10.4075 38.5567C9.33684 34.3743 9.5094 29.9713 10.9042 25.885C12.299 21.7988 14.8557 18.2059 18.2623 15.5449C21.6689 12.884 25.7781 11.2699 30.0886 10.8996L28.0374 13.3387L29.3506 14.4377L32.6566 10.5036C32.729 10.4176 32.7837 10.3182 32.8175 10.2111C32.8514 10.104 32.8638 9.99124 32.854 9.87934C32.8442 9.76745 32.8124 9.65857 32.7605 9.55892C32.7085 9.45928 32.6374 9.37083 32.5511 9.29862L28.6083 6L27.5094 7.31534L29.7714 9.21054C25.1396 9.64153 20.7332 11.4063 17.0882 14.2902C13.4432 17.1741 10.7167 21.0528 9.24049 25.4544C7.76427 29.8561 7.60192 34.5909 8.7732 39.0829C9.94447 43.5748 12.3989 47.6304 15.8378 50.7561C19.2768 53.8818 23.552 55.943 28.1435 56.6888C32.7349 57.4346 37.4447 56.833 41.6997 54.9571C45.9548 53.0812 49.5717 50.0119 52.1106 46.1226C54.6494 42.2333 56.0007 37.6916 56 33.0501H54.2857Z" fill="#FF451D"/>
<path d="M53.8137 28.4777L55.492 28.128C55.3712 27.5515 55.2272 26.9734 55.0634 26.4072L53.416 26.8802C53.5677 27.4053 53.7014 27.9432 53.8137 28.4777Z" fill="#FF451D"/>
<path d="M52.9006 25.3171L54.5086 24.7227C54.3038 24.172 54.0801 23.6212 53.8298 23.085L52.2715 23.7974C52.4995 24.2951 52.7121 24.8057 52.9006 25.3171Z" fill="#FF451D"/>
<path d="M51.5301 22.3284L53.0309 21.5023C52.7455 20.9891 52.4378 20.476 52.1164 19.9834L50.6807 20.9173C50.9789 21.374 51.2652 21.8469 51.5301 22.3284Z" fill="#FF451D"/>
<path d="M54.2477 31.7404L55.962 31.6395C55.9268 31.0502 55.8702 30.4567 55.7905 29.876L54.0908 30.1009C54.162 30.6406 54.2143 31.1922 54.2477 31.7404Z" fill="#FF451D"/>
<path d="M49.7285 19.5736L51.0913 18.5354C50.733 18.0675 50.3533 17.6074 49.9625 17.167L48.6768 18.3019C49.0436 18.7115 49.4002 19.1392 49.7285 19.5736Z" fill="#FF451D"/>
<path d="M42.9859 11.7552C42.4631 11.4858 41.9214 11.2318 41.3762 11L40.7051 12.5745C41.2116 12.7891 41.7139 13.0252 42.1999 13.2749L42.9859 11.7552Z" fill="#FF451D"/>
<path d="M39.7145 10.3684C39.1565 10.1785 38.5831 10.0083 38.0096 9.86035L37.5811 11.5161C38.1125 11.6529 38.6448 11.812 39.1625 11.9873L39.7145 10.3684Z" fill="#FF451D"/>
<path d="M48.735 15.886C48.3116 15.4747 47.8676 15.0753 47.4159 14.6973L46.3145 16.0075C46.7345 16.359 47.1467 16.7301 47.5393 17.1116L48.735 15.886Z" fill="#FF451D"/>
<path d="M36.275 9.48117C35.6965 9.37683 35.1042 9.29302 34.5153 9.23145L34.3379 10.9334C34.8847 10.9898 35.4342 11.0676 35.9665 11.1643L36.275 9.48117Z" fill="#FF451D"/>
<path d="M46.0137 13.6078C45.5337 13.2657 45.0357 12.933 44.5343 12.626L43.6377 14.0799C44.104 14.3655 44.566 14.6725 45.0091 14.9933L46.0137 13.6078Z" fill="#FF451D"/>
</svg>
