<svg width="64" height="64" viewBox="0 0 64 64" fill="none" xmlns="http://www.w3.org/2000/svg">
<path d="M30.5396 34.9429C30.5396 39.6551 29.6751 43.2352 27.9463 45.6831C26.2174 48.1157 23.6701 49.332 20.3042 49.332C16.9995 49.332 14.4674 48.1387 12.708 45.752C10.9486 43.3499 10.0459 39.8617 10 35.2871V29.2974C10 24.6004 10.8721 21.0433 12.6162 18.626C14.3604 16.2087 16.9077 15 20.2583 15C23.563 15 26.0874 16.1704 27.8315 18.5112C29.5757 20.8368 30.4784 24.2715 30.5396 28.8154V34.9429ZM27.7856 28.9531C27.7856 25.1283 27.1584 22.2367 25.9038 20.2783C24.6646 18.32 22.7827 17.3408 20.2583 17.3408C17.7798 17.3408 15.9132 18.297 14.6587 20.2095C13.4041 22.1219 12.7616 24.9447 12.731 28.6777V35.2412C12.731 39.0508 13.3735 41.9653 14.6587 43.9849C15.9591 46.0044 17.841 47.0142 20.3042 47.0142C22.7521 47.0142 24.6034 46.0273 25.8579 44.0537C27.1278 42.0801 27.7703 39.1885 27.7856 35.3789V28.9531Z" fill="#FF451D"/>
<path d="M45.6737 43.4121H39.4836V49H37.4315V43.4121H34V41.6813H37.4315V39.2253H34V37.511H37.4315V25H45.7746C48.3538 25 50.3667 25.6429 51.8133 26.9286C53.2711 28.2033 54 29.9396 54 32.1374C54 34.3791 53.2935 36.1209 51.8806 37.3626C50.4676 38.5934 48.4491 39.2143 45.8251 39.2253H39.4836V41.6813H45.6737V43.4121ZM39.4836 37.511H45.7746C47.7258 37.511 49.2397 37.0495 50.3162 36.1264C51.3928 35.1923 51.931 33.8736 51.931 32.1703C51.931 30.522 51.404 29.2143 50.3499 28.2473C49.307 27.2802 47.866 26.7747 46.0269 26.7308H39.4836V37.511Z" fill="#29303A"/>
</svg>
