<svg width="72" height="72" viewBox="0 0 72 72" fill="none" xmlns="http://www.w3.org/2000/svg">
<path opacity="0.2" d="M0 36C0 16.1178 16.1178 0 36 0C55.8823 0 72 16.1178 72 36C72 55.8823 55.8823 72 36 72H0V36Z" fill="#FF451D"/>
<path opacity="0.8" d="M12 36C12 22.7452 22.7452 12 36 12C49.2548 12 60 22.7452 60 36C60 49.2548 49.2548 60 36 60H12V36Z" fill="#FF451D"/>
<path fill-rule="evenodd" clip-rule="evenodd" d="M44 28.5C44 27.7 43.3 27 42.5 27H29.5C28.7 27 28 27.7 28 28.5V41.5C28 42.3 28.7 43 29.5 43H39.9H40.1L40.3 43.2L44 45V28.5ZM29.5 26H42.5C43.9 26 45 27.1 45 28.5V46.6L39.9 44H29.5C28.1 44 27 42.9 27 41.5V28.5C27 27.1 28.1 26 29.5 26ZM30.8 36.3L31.9 35.1L32.2 35.4C32.4 35.6 32.7 35.8 33.1 35.9C33.9 36.4 35 36.8 36.3 36.8C37.5 36.8 38.6 36.5 39.4 36.1C40.2 35.7 40.7 35.3 40.7 35.3L40.8 35.4L41.8 36.5C41.8 36.6 41.2 37 40.3 37.5C39.4 38 38 38.5 36.4 38.5C34.7 38.5 33.4 37.9 32.4 37.4C31.4 36.9 30.8 36.3 30.8 36.3Z" fill="white"/>
</svg>
