<svg width="235" height="160" viewBox="0 0 235 160" fill="none" xmlns="http://www.w3.org/2000/svg">
<path opacity="0.1" d="M226.221 48.5792H189.911H179.564C175.289 48.5792 171.633 45.216 171.571 40.9809C171.509 36.6213 174.979 33.0712 179.316 33.0712H181.175H203.171C207.446 33.0712 211.102 29.7081 211.164 25.4729C211.226 21.1133 207.756 17.5633 203.419 17.5633H171.323C168.287 17.5633 165.313 16.629 162.834 14.8229C149.885 5.48073 133.961 0 116.735 0C79.311 0 47.9587 25.9712 39.408 60.9109C38.7884 63.3398 36.6198 65.0837 34.1414 65.0837H23.6699C19.3946 65.0837 15.9248 68.5714 15.9248 72.8688C15.9248 77.1662 19.3946 80.654 23.6699 80.654H37.1774H38.7265C43.0018 80.654 46.6575 84.0171 46.7194 88.2522C46.7814 92.6119 43.3116 96.1619 38.9743 96.1619H7.99379C3.71848 96.1619 0.0627781 99.5251 0.000817084 103.76C-0.061144 108.12 3.40867 111.67 7.74595 111.67H43.6834H56.0756C60.3509 111.67 64.0066 115.033 64.0685 119.268C64.1305 123.628 60.6607 127.178 56.3234 127.178H29.6182C25.3429 127.178 21.8731 130.666 21.8731 134.963C21.8731 139.26 25.3429 142.748 29.6182 142.748H62.6434C65.5556 142.748 68.4678 143.682 70.8223 145.364C83.7722 154.582 99.6342 160 116.735 160C154.036 160 185.388 134.153 193.939 99.3383C194.559 96.9093 196.727 95.2277 199.206 95.2277H210.235C214.51 95.2277 218.166 91.8645 218.228 87.6294C218.29 83.2698 214.82 79.7197 210.482 79.7197H196.293H193.877C189.602 79.7197 185.946 76.3566 185.884 72.1215C185.822 67.7618 189.292 64.2118 193.629 64.2118H194.744H226.468C230.806 64.2118 234.276 60.6617 234.214 56.3021C234.152 51.9424 230.496 48.5792 226.221 48.5792Z" fill="#058BD9"/>
<path fill-rule="evenodd" clip-rule="evenodd" d="M149 111H85V112H149V111ZM149 110H150V111V112V113H149H85H84V112V111V110H85H149Z" fill="#058BD9"/>
<path d="M110.129 97L149 58.7634L140.091 50L110.129 79.4732L93.9087 63.5171L85 72.2806L110.129 97Z" fill="#058BD9"/>
</svg>
