<svg width="15" height="19" viewBox="0 0 15 19" fill="none" xmlns="http://www.w3.org/2000/svg">
<path d="M3 0H0V3H3V0Z" fill="#058BD9"/>
<path d="M4.5 2.5V0.5H14.5V2.5H4.5Z" stroke="#058BD9"/>
<path d="M3 4H0V7H3V4Z" fill="#058BD9"/>
<path d="M4.5 6.5V4.5H14.5V6.5H4.5Z" stroke="#058BD9"/>
<path d="M3 8H0V11H3V8Z" fill="#058BD9"/>
<path d="M4.5 10.5V8.5H14.5V10.5H4.5Z" stroke="#058BD9"/>
<path d="M3 12H0V15H3V12Z" fill="#058BD9"/>
<path d="M4.5 14.5V12.5H14.5V14.5H4.5Z" stroke="#058BD9"/>
<path d="M3 16H0V19H3V16Z" fill="#058BD9"/>
<path d="M4.5 18.5V16.5H14.5V18.5H4.5Z" stroke="#058BD9"/>
</svg>
