<svg width="37" height="22" viewBox="0 0 37 22" fill="none" xmlns="http://www.w3.org/2000/svg">
<path d="M36.9439 12.5191L31.0755 0.428083C30.8886 0.0442407 30.4401 -0.109297 30.1037 0.0826243L23.8241 3.07659C23.6372 3.15336 23.4877 3.3069 23.4503 3.49882C23.3756 3.72912 23.3756 3.95943 23.4503 4.11296L23.5251 4.2665L22.5906 3.88266C22.5158 3.88266 22.4411 3.84427 22.3663 3.80589C18.6659 2.96144 14.7785 3.80589 14.7411 3.84428C14.4047 3.84428 12.3115 3.95943 11.2649 3.99781C10.9659 3.99781 10.7416 3.72912 10.779 3.42205L10.8911 2.8079C10.9285 2.61598 10.8911 2.38568 10.779 2.23214C10.6669 2.0786 10.48 1.96345 10.2931 1.92507L3.45284 0.773541C3.04167 0.696773 2.66789 0.965461 2.59313 1.38769L0.014017 14.5919C-0.0233615 14.7838 0.0140167 15.0141 0.126152 15.206C0.238287 15.3979 0.42518 15.4747 0.649451 15.5131L7.71398 16.5111C7.75136 16.5111 7.78874 16.5111 7.82612 16.5111C8.1999 16.5111 8.49893 16.2424 8.57368 15.8969L8.61106 15.6666C8.61106 15.6666 14.5916 20.1959 15.9746 21.2323C16.1615 21.3859 16.3484 21.501 16.5727 21.5394C17.7688 21.8848 18.7406 21.8848 19.4134 21.501C19.4882 21.4626 19.5629 21.4242 19.6377 21.3475C20.0489 21.6929 20.6843 22 21.4693 22C21.6561 22 21.8804 21.9616 22.1047 21.9232C22.8896 21.7697 23.2634 21.3091 23.4129 20.9636C23.4877 20.8101 23.5251 20.6182 23.5251 20.4646C24.0857 20.6566 24.7212 20.6949 25.2819 20.3879C25.6556 20.1959 25.8799 19.8505 26.0294 19.4666C26.1042 19.2363 26.1042 19.006 26.1042 18.7757C26.2911 18.8141 26.5153 18.8141 26.7396 18.7757C27.2629 18.699 27.7115 18.3919 28.0105 17.8929C28.459 17.1636 28.4964 16.4343 28.3469 15.8585C28.4964 15.8201 28.6459 15.7818 28.7954 15.705L28.9823 16.0504C29.0945 16.3191 29.3935 16.4727 29.6551 16.4727C29.7673 16.4727 29.842 16.4343 29.9542 16.3959L36.5328 13.5171C36.7197 13.4403 36.8692 13.2868 36.9439 13.0949C37.0187 12.9029 37.0187 12.6726 36.9439 12.5191ZM1.73343 13.6322L3.78924 2.88467C3.82662 2.61598 4.08827 2.46245 4.31254 2.50083L8.79795 3.3069C9.0596 3.34528 9.20912 3.61397 9.17174 3.84428L8.98485 4.76549L7.30282 14.4767C7.26544 14.707 7.04117 14.8989 6.77952 14.8605L2.10721 14.1696C1.84556 14.1696 1.69605 13.9009 1.73343 13.6322ZM26.8891 17.0484C26.7022 17.202 26.7396 17.202 26.5527 17.2787C26.1416 17.3939 25.7304 17.0101 25.5061 16.8565L21.1328 12.7878C20.8338 12.5191 20.3479 12.5191 20.0862 12.8262C19.8246 13.1332 19.8246 13.6322 20.1236 13.9009L24.1979 17.7394C24.3474 17.8929 24.4595 18.0848 24.5343 18.2767C24.6838 18.699 24.31 19.0444 23.8989 18.9293C23.5624 18.8525 23.226 18.6222 22.9644 18.4303L22.927 18.3919L19.2639 15.0908C18.9649 14.8222 18.479 14.8605 18.2173 15.1676C17.9557 15.4747 17.9931 15.9737 18.2921 16.2424L21.7683 19.3515C21.8804 19.4666 21.9925 19.6202 22.0673 19.7737C22.1421 20.0424 22.2168 20.3111 22.1794 20.3879C22.1794 20.3879 22.1421 20.4262 21.9552 20.4262C20.946 20.6182 17.8809 17.5474 17.8809 17.5474C17.5819 17.2787 17.096 17.3171 16.8343 17.6242C16.5727 17.9313 16.6101 18.4303 16.9091 18.699L17.4324 19.1596C17.8062 19.505 17.4698 20.1192 16.9838 19.9656C16.9465 19.9656 16.9091 19.9273 16.8343 19.8889L9.13436 14.1312C8.98485 14.0161 8.91009 13.8626 8.94747 13.6706L10.3305 5.99379C10.3678 5.76349 10.5547 5.60995 10.7416 5.60995L12.461 5.53318C12.7974 5.53318 13.0591 5.87864 12.9096 6.18571C12.5358 6.99178 12.2742 8.02815 12.2742 9.3716C12.2742 10.5231 12.6106 11.2908 13.2834 11.6746C14.5542 12.3656 16.6474 10.9453 16.6848 10.907C17.395 10.2161 18.2547 9.56352 18.5537 9.44837C18.9275 9.29483 19.6003 9.02614 20.4227 9.52514C20.6843 9.67867 20.946 9.90898 21.1328 10.1777C22.4785 11.8282 26.4032 15.4747 26.6649 15.7434C27.2255 16.2808 27.2629 16.5878 26.8891 17.0484ZM28.1974 14.2848C28.0852 14.3232 27.8983 14.3615 27.6741 14.3615C27.5619 14.3615 27.4498 14.3232 27.3377 14.2464C26.2537 13.2868 22.9644 10.1393 22.1421 8.94937C20.9833 7.37562 18.5911 7.83623 18.5164 7.83623C17.7688 7.87461 16.6101 8.79584 15.713 9.64029C15.6756 9.64029 15.6756 9.67867 15.6382 9.67867C15.1897 9.94736 14.629 10.2161 14.2552 10.2544C14.0309 10.2928 13.844 10.1393 13.7693 9.90898C13.7319 9.75544 13.6945 9.56352 13.6945 9.29483C13.7319 7.10693 14.6664 5.84025 15.0775 5.37964C15.1523 5.30288 15.227 5.26449 15.3018 5.22611C16.1989 5.03419 18.9275 4.61196 21.9552 5.30287C21.9925 5.30287 21.9925 5.30287 22.0299 5.34126L22.5906 5.45641C23.0765 5.57156 23.5624 5.76348 23.9736 6.03217C23.9736 6.03217 24.4221 6.33925 24.4595 6.4544L28.1974 14.2848ZM29.8794 14.2848L25.3192 4.57357C25.2071 4.34327 25.3192 4.0362 25.5435 3.95943L29.6551 2.00183C29.8794 1.88668 30.1411 2.00183 30.2532 2.23214L35.0376 12.0585C35.1498 12.2888 35.0376 12.5959 34.8134 12.711L30.4775 14.5535C30.2158 14.6302 29.9542 14.5151 29.8794 14.2848Z" fill="white"/>
<path d="M29.9521 10.9998C29.9521 12.0113 30.742 12.8332 31.7141 12.8332C32.6861 12.8332 33.476 12.0113 33.476 10.9998C33.476 9.98834 32.6861 9.1665 31.7141 9.1665C30.742 9.1665 29.9521 9.98834 29.9521 10.9998ZM31.7444 10.4309C32.0482 10.4309 32.2912 10.6837 32.2912 10.9998C32.2912 11.3159 32.0482 11.5688 31.7444 11.5688C31.4407 11.5688 31.1673 11.3159 31.1673 10.9998C31.1673 10.6837 31.4103 10.4309 31.7444 10.4309Z" fill="white"/>
<path d="M5.28534 9.1665C4.31326 9.1665 3.52344 9.98834 3.52344 10.9998C3.52344 12.0113 4.31326 12.8332 5.28534 12.8332C6.25743 12.8332 7.04725 12.0113 7.04725 10.9998C7.04725 10.02 6.25743 9.1665 5.28534 9.1665ZM5.28534 11.6004C4.98157 11.6004 4.73854 11.3475 4.73854 11.0314C4.73854 10.7154 4.98157 10.4625 5.28534 10.4625C5.58912 10.4625 5.83214 10.7154 5.83214 11.0314C5.83214 11.3475 5.58912 11.6004 5.28534 11.6004Z" fill="white"/>
</svg>
