<svg width="143" height="45" viewBox="0 0 143 45" fill="none" xmlns="http://www.w3.org/2000/svg">
<path d="M0.868113 1.27231L0.856808 1.28739L0.844401 1.30156C0.319383 1.90158 0.42061 2.76169 0.968113 3.17231C1.61748 3.65934 2.482 3.58713 2.86811 3.07231L2.88943 3.04388L2.91456 3.01876C3.37932 2.55399 3.3553 1.68799 2.73886 1.1486C2.13884 0.623582 1.27874 0.724809 0.868113 1.27231Z" fill="white" stroke="#FFBA08"/>
<path d="M139.868 1.27231L139.857 1.28739L139.844 1.30156C139.319 1.90158 139.421 2.76169 139.968 3.17231C140.617 3.65934 141.482 3.58713 141.868 3.07231L141.889 3.04388L141.915 3.01876C142.379 2.55399 142.355 1.68799 141.739 1.1486C141.139 0.623582 140.279 0.724809 139.868 1.27231Z" fill="white" stroke="#FFBA08"/>
<path d="M4 4.5C13.8333 12.3333 40.9 28 70.5 28C100.1 28 128.5 12.3333 139 4.5" stroke="#FFBA08" stroke-dasharray="2 2"/>
<path d="M67.8017 19.6967L67.7994 17.9765L69.2954 18.8257L83.358 26.8086L84.8642 27.6637L83.3706 28.5406L69.33 36.7843L67.8261 37.6673L67.8237 35.9233L67.8017 19.6967Z" fill="#FFBA08" stroke="white" stroke-width="2"/>
</svg>
