<svg width="143" height="41" viewBox="0 0 143 41" fill="none" xmlns="http://www.w3.org/2000/svg">
<path d="M0.868113 38.2723L0.856808 38.2874L0.844401 38.3016C0.319383 38.9016 0.42061 39.7617 0.968113 40.1723C1.61748 40.6593 2.482 40.5871 2.86811 40.0723L2.88943 40.0439L2.91456 40.0188C3.37932 39.554 3.3553 38.688 2.73886 38.1486C2.13884 37.6236 1.27874 37.7248 0.868113 38.2723Z" fill="white" stroke="#058BD9"/>
<path d="M139.868 38.2723L139.857 38.2874L139.844 38.3016C139.319 38.9016 139.421 39.7617 139.968 40.1723C140.617 40.6593 141.482 40.5871 141.868 40.0723L141.889 40.0439L141.915 40.0188C142.379 39.554 142.355 38.688 141.739 38.1486C141.139 37.6236 140.279 37.7248 139.868 38.2723Z" fill="white" stroke="#058BD9"/>
<path d="M4 38C13.8333 30.1667 40.9 14.5 70.5 14.5C100.1 14.5 128.5 30.1667 139 38" stroke="#058BD9" stroke-dasharray="2 2"/>
<path d="M67.8017 6.69671L67.7994 4.97646L69.2954 5.8257L83.358 13.8086L84.8642 14.6637L83.3706 15.5406L69.33 23.7843L67.8261 24.6673L67.8237 22.9233L67.8017 6.69671Z" fill="#058BD9" stroke="white" stroke-width="2"/>
</svg>
