<svg width="28" height="30" viewBox="0 0 28 30" fill="none" xmlns="http://www.w3.org/2000/svg">
<path d="M2.05727 30H26.3744C26.958 30 27.4317 29.5263 27.4317 28.9427V22.9834C27.4317 19.1382 23.9316 15.7549 19.7887 15.5958C19.1998 15.5778 18.714 16.0287 18.6918 16.6118C18.6691 17.1954 19.1237 17.6865 19.7073 17.7087C22.6957 17.8229 25.3171 20.2879 25.3171 22.9834V27.8855H3.11453V22.9834C3.11453 20.2885 5.73603 17.8235 8.72439 17.7087C9.30801 17.6865 9.76263 17.1949 9.7399 16.6118C9.7177 16.0287 9.24933 15.5768 8.64299 15.5958C4.50008 15.7544 1 19.1376 1 22.9834V28.9427C1 29.5263 1.47366 30 2.05727 30Z" fill="#29303A"/>
<path d="M7.0791 7.13655C7.0791 11.0717 10.2805 14.2731 14.2157 14.2731C18.1508 14.2731 21.3522 11.0717 21.3522 7.13655C21.3522 3.20141 18.1508 0 14.2157 0C10.2805 0 7.0791 3.20141 7.0791 7.13655ZM19.2377 7.13655C19.2377 9.90554 16.9846 12.1586 14.2157 12.1586C11.4467 12.1586 9.19364 9.90554 9.19364 7.13655C9.19364 4.36757 11.4467 2.11453 14.2157 2.11453C16.9846 2.11453 19.2377 4.36757 19.2377 7.13655Z" fill="#29303A"/>
</svg>
