<svg width="164" height="54" viewBox="0 0 164 54" fill="none" xmlns="http://www.w3.org/2000/svg">
<path d="M67.0998 23.1002V27.2002C66.3998 28.6002 64.8998 29.9002 62.6998 29.9002C59.8998 29.9002 58.2998 27.7002 58.2998 25.1002C58.2998 22.5002 59.8998 20.3002 62.6998 20.3002C64.7998 20.3002 66.3998 21.6002 67.0998 23.1002ZM53.2998 25.1002C53.2998 29.7002 56.1998 34.0002 61.4998 34.0002C64.1998 34.0002 65.8998 32.9002 66.9998 31.7002V33.2002C66.9998 36.5002 64.4998 37.5002 61.4998 37.5002C59.1998 37.5002 56.8998 36.9002 54.9998 35.7002V40.0002C56.9998 41.0002 59.4998 41.6002 62.0998 41.6002C66.9998 41.6002 71.7998 39.4002 71.7998 33.0002V16.6002H67.4998V19.1002C66.3998 17.6002 64.4998 16.2002 61.3998 16.2002C56.1998 16.2002 53.2998 20.5002 53.2998 25.1002Z" fill="#29303A"/>
<path d="M86.8004 23.5001H79.3004C79.4004 21.2001 81.2004 19.9001 83.3004 19.9001C86.3004 19.9001 86.9004 22.3001 86.8004 23.5001ZM74.4004 25.1001C74.4004 30.9001 78.8004 34.0001 84.1004 34.0001C86.6004 34.0001 88.7004 33.6001 90.3004 32.9001V29.1001C88.9004 29.7001 87.1004 30.1001 85.2004 30.1001C82.4004 30.1001 79.8004 29.1001 79.3004 26.6001H91.1004C92.2004 21.6001 90.0004 16.1001 83.0004 16.1001C79.3004 16.2001 74.4004 18.7001 74.4004 25.1001Z" fill="#29303A"/>
<path d="M107.1 8.7V33.5H112V7.5L107.1 8.7ZM94.3996 11.7V16.6H91.5996V20.7H94.3996V28.2C94.3996 32.4 97.1996 33.9 100.5 33.9C102.2 33.9 103.7 33.6 105 33.2V29.3C104 29.7 103.1 29.9 102 29.9C100.2 29.9 99.2996 29.1 99.2996 27.4V20.8H104.6V16.7H99.2996V10.6L94.3996 11.7Z" fill="#29303A"/>
<path d="M122.7 26.1001C123.7 26.1001 124.8 26.3001 125.6 26.5001V29.1001C124.5 30.1001 123.2 30.5001 121.8 30.5001C120.3 30.5001 119.2 29.7001 119.2 28.4001C119.2 26.7001 121 26.1001 122.7 26.1001ZM130.5 29.1001V23.7001C130.5 18.2001 127.3 16.1001 122.2 16.1001C119.6 16.1001 117.1 16.8001 115.7 17.2001V21.4001C117.3 20.8001 119.3 20.1001 121.7 20.1001C124.3 20.1001 125.7 21.3001 125.7 22.9001V23.5001C124.5 23.2001 123 23.0001 121.7 23.0001C118.3 23.0001 114.3 24.3001 114.3 28.6001C114.3 31.9001 117 33.7001 120.2 33.7001C122.7 33.7001 124.6 32.9001 126.3 31.6001C127 32.9001 128.3 33.5001 130 33.5001C130.9 33.5001 131.9 33.3001 132.7 33.0001V29.8001C132.4 29.9001 132.1 29.9001 131.8 29.9001C131 30.2001 130.5 30.0001 130.5 29.1001Z" fill="#29303A"/>
<path d="M154.4 16.6001L151.4 28.2001L148 16.6001H143.4L140.1 28.2001L137 16.6001H131.8L137.2 33.5001H142.4L145.7 22.5001L149.1 33.5001H154.2L159.6 16.6001H154.4Z" fill="#29303A"/>
<path d="M22 42.5V16.4C22 13.7 19.8 11.6 17.2 11.6H16.8C14.1 11.6 12 13.8 12 16.4V41.9C12 47.4 16.5 51.9 22 51.9C27.5 51.9 32 47.4 32 41.9V16.9C32 8.7 25.3 2 17.1 2H16.8C8.7 2 2 8.7 2 16.9V42.5" stroke="#058BD9" stroke-width="4" stroke-miterlimit="10"/>
</svg>
