<svg width="30" height="24" viewBox="0 0 30 24" fill="none" xmlns="http://www.w3.org/2000/svg">
<path fill-rule="evenodd" clip-rule="evenodd" d="M30 13.7032V20.5548C30 22.4516 28.4962 24 26.6541 24H20C18.1579 24 16.6541 22.4516 16.6541 20.5548V13.7032C16.6541 6.11613 22.6316 0 29.9624 0V4.83871C26.5414 5.07097 23.609 7.23871 22.218 10.2968H26.6541C28.4962 10.2968 30 11.8065 30 13.7032ZM10 24H3.34586C1.50376 24 0 22.4516 0 20.5548V13.7032C0 6.11613 5.97744 0 13.3083 0V4.83871C9.88722 5.07097 6.95489 7.23871 5.56391 10.2968H10C11.8421 10.2968 13.3459 11.8452 13.3459 13.7419V20.5935C13.3459 22.4516 11.8421 24 10 24Z" fill="#EFEFEF"/>
</svg>
