<svg width="192" height="128" viewBox="0 0 192 128" fill="none" xmlns="http://www.w3.org/2000/svg">
<path opacity="0.16" d="M185.447 38.8634H155.682H147.2C143.695 38.8634 140.698 36.1728 140.647 32.7847C140.597 29.297 143.441 26.457 146.996 26.457H148.52H166.552C170.057 26.457 173.053 23.7664 173.104 20.3784C173.155 16.8906 170.311 14.0506 166.755 14.0506H140.444C137.955 14.0506 135.517 13.3032 133.485 11.8583C122.87 4.38459 109.816 0 95.6952 0C65.0161 0 39.3147 20.777 32.3052 48.7287C31.7973 50.6719 30.0195 52.067 27.9878 52.067H19.4037C15.899 52.067 13.0545 54.8571 13.0545 58.2951C13.0545 61.733 15.899 64.5232 19.4037 64.5232H30.4766H31.7465C35.2512 64.5232 38.248 67.2137 38.2988 70.6018C38.3496 74.0895 35.5052 76.9295 31.9497 76.9295H6.553C3.04827 76.9295 0.0514631 79.6201 0.000669814 83.0082C-0.0501235 86.4959 2.7943 89.3359 6.34983 89.3359H35.8099H45.9686C49.4733 89.3359 52.4701 92.0265 52.5209 95.4146C52.5717 98.9023 49.7273 101.742 46.1718 101.742H24.2799C20.7751 101.742 17.9307 104.533 17.9307 107.97C17.9307 111.408 20.7751 114.199 24.2799 114.199H51.3527C53.74 114.199 56.1273 114.946 58.0574 116.291C68.6732 123.665 81.6763 128 95.6952 128C126.273 128 151.974 107.323 158.984 79.4706C159.492 77.5274 161.269 76.1822 163.301 76.1822H172.342C175.847 76.1822 178.844 73.4916 178.895 70.1035C178.945 66.6158 176.101 63.7758 172.546 63.7758H160.914H158.933C155.428 63.7758 152.431 61.0853 152.381 57.6972C152.33 54.2094 155.174 51.3694 158.73 51.3694H159.644H185.65C189.206 51.3694 192.05 48.5294 191.999 45.0417C191.949 41.5539 188.952 38.8634 185.447 38.8634Z" fill="#FFBA08"/>
<rect x="44" y="14" width="81.25" height="100" rx="4" fill="#FFBA08"/>
<rect x="76" y="21" width="13" height="3" fill="white"/>
<rect x="92" y="21" width="3" height="3" fill="white"/>
<rect x="52" y="31" width="66" height="66" fill="white"/>
<rect x="73" y="39" width="25" height="3" fill="#FFBA08"/>
<rect x="65" y="47" width="45" height="3" fill="#FFBA08"/>
<rect x="60" y="63" width="45" height="3" fill="#FFBA08"/>
<rect x="60" y="55" width="38" height="3" fill="#FFBA08"/>
<rect x="101" y="55" width="9" height="3" fill="#FFBA08"/>
<path d="M65.8194 78.8392C67.328 75.3615 69.7573 72 74.0128 72C76.723 72 79.4426 73.569 80.9106 76.8271C84.0213 76.9286 86.3139 77.9662 87.8474 80.4436C89.1057 78.6929 91.113 76.993 94.0193 76.993C97.4098 77.0429 99.4761 79.3011 99.2634 83.663H102.349C104.622 83.663 104.622 86.9964 102.349 86.9964H97.3526C96.2604 87.0026 95.4575 85.9743 95.7283 84.9162C96.0624 83.1842 96.2667 80.4358 94.2244 80.3394C91.3605 80.2041 89.6888 83.3217 88.9607 85.7301C88.4636 87.622 85.6407 87.3094 85.6697 85.2161C85.6888 83.8268 85.3842 82.7649 84.8396 81.9283C84.2889 81.0823 83.1673 80.404 81.8676 80.2812C82.2144 83.1692 81.1306 87.1746 77.0629 86.9837C73.9957 86.8398 72.081 83.9354 73.4106 80.7727C74.0479 79.2568 75.4204 77.943 77.3591 77.2765C76.7143 76.3795 75.71 75.3201 74.0128 75.3201C71.5812 75.3201 69.8395 77.8161 68.8826 80.1445C67.7783 82.8315 67.3331 85.5579 67.3331 85.5579C67.1044 87.8654 63.6121 87.369 64.0356 85.0892C64.0356 85.0892 64.4638 82.0024 65.8194 78.8392Z" fill="#FF451D"/>
<path d="M78.3333 82.8756C78.5619 82.3202 78.6557 81.4044 78.5253 80.4082C77.3623 80.7788 76.7237 81.4643 76.4746 82.0747C75.821 83.6762 77.7631 84.2623 78.3333 82.8756Z" fill="white"/>
<circle cx="84" cy="105" r="4" fill="white"/>
<rect x="134" y="19" width="10" height="10" fill="#FF451D"/>
<rect x="134" y="31" width="10" height="66" fill="#FF451D"/>
<path d="M144 98.5H134L139 107.5L144 98.5Z" fill="#FF451D"/>
</svg>
