<svg width="380" height="60" viewBox="0 0 380 60" fill="none" xmlns="http://www.w3.org/2000/svg">
<rect y="4" width="308" height="52" rx="26" fill="#EFEFEF"/>
<path opacity="0.5" d="M30.48 35H29.12V25.08H23.04V35H21.68V23.8H30.48V35ZM33.8843 34.104C33.1803 33.3787 32.8283 32.4773 32.8283 31.4C32.8283 30.312 33.1803 29.416 33.8843 28.712C34.5989 27.9973 35.5269 27.64 36.6683 27.64C37.8096 27.64 38.7323 27.9973 39.4363 28.712C40.1509 29.416 40.5083 30.312 40.5083 31.4C40.5083 32.488 40.1509 33.3893 39.4363 34.104C38.7323 34.808 37.8096 35.16 36.6683 35.16C35.5376 35.16 34.6096 34.808 33.8843 34.104ZM34.8923 29.56C34.4229 30.0293 34.1883 30.6427 34.1883 31.4C34.1883 32.1573 34.4176 32.7707 34.8763 33.24C35.3456 33.72 35.9429 33.96 36.6683 33.96C37.3936 33.96 37.9856 33.7253 38.4443 33.256C38.9136 32.776 39.1483 32.1573 39.1483 31.4C39.1483 30.664 38.9136 30.0507 38.4443 29.56C37.9856 29.08 37.3936 28.84 36.6683 28.84C35.9429 28.84 35.3509 29.08 34.8923 29.56ZM47.7951 29.64L43.6351 35H42.3551V27.8H43.6351V33.16L47.7951 27.8H49.0751V35H47.7951V29.64ZM56.938 33.032L57.546 33.96C56.9273 34.76 56.0047 35.16 54.778 35.16C53.626 35.16 52.6927 34.8187 51.978 34.136C51.274 33.4533 50.922 32.5413 50.922 31.4C50.922 30.344 51.2687 29.4533 51.962 28.728C52.6553 28.0027 53.5247 27.64 54.57 27.64C55.8287 27.64 56.7727 27.9547 57.402 28.584L56.81 29.592C56.2553 29.0907 55.5673 28.84 54.746 28.84C54.074 28.84 53.4927 29.0853 53.002 29.576C52.522 30.056 52.282 30.664 52.282 31.4C52.282 32.1787 52.5273 32.7973 53.018 33.256C53.5193 33.7253 54.138 33.96 54.874 33.96C55.706 33.96 56.394 33.6507 56.938 33.032ZM63.8385 27.8H65.5185L62.3665 31.24L65.8225 35H64.0465L60.7985 31.32L63.8385 27.8ZM60.4945 35H59.2145V27.8H60.4945V35ZM70.985 36.76H69.785V33.8H70.681C70.9477 33.4693 71.1823 32.936 71.385 32.2C71.5877 31.4533 71.721 30.6213 71.785 29.704L71.897 27.8H76.809V33.8H78.009V36.76H76.809V35H70.985V36.76ZM73.097 29L73.017 30.2C72.953 31 72.825 31.7307 72.633 32.392C72.441 33.0533 72.2437 33.5227 72.041 33.8H75.529V29H73.097ZM79.978 34.104C79.274 33.3787 78.922 32.4773 78.922 31.4C78.922 30.312 79.274 29.416 79.978 28.712C80.6927 27.9973 81.6207 27.64 82.762 27.64C83.9033 27.64 84.826 27.9973 85.53 28.712C86.2447 29.416 86.602 30.312 86.602 31.4C86.602 32.488 86.2447 33.3893 85.53 34.104C84.826 34.808 83.9033 35.16 82.762 35.16C81.6313 35.16 80.7033 34.808 79.978 34.104ZM80.986 29.56C80.5167 30.0293 80.282 30.6427 80.282 31.4C80.282 32.1573 80.5113 32.7707 80.97 33.24C81.4393 33.72 82.0367 33.96 82.762 33.96C83.4873 33.96 84.0793 33.7253 84.538 33.256C85.0073 32.776 85.242 32.1573 85.242 31.4C85.242 30.664 85.0073 30.0507 84.538 29.56C84.0793 29.08 83.4873 28.84 82.762 28.84C82.0367 28.84 81.4447 29.08 80.986 29.56ZM93.0729 27.8H94.7529L91.6009 31.24L95.0569 35H93.2809L90.0329 31.32L93.0729 27.8ZM89.7289 35H88.4489V27.8H89.7289V35ZM101.365 27.8H102.821L99.941 35C99.4183 36.2693 98.965 37.112 98.581 37.528C98.1757 37.976 97.7117 38.2 97.189 38.2C96.7197 38.2 96.2663 38.0507 95.829 37.752L96.245 36.776C96.5863 36.936 96.853 37.016 97.045 37.016C97.3437 37.016 97.6103 36.888 97.845 36.632C98.0903 36.376 98.3357 35.96 98.581 35.384L98.741 35L95.285 27.8H96.821L98.933 32.376C98.9757 32.4507 99.1197 32.8133 99.365 33.464C99.461 33.112 99.573 32.744 99.701 32.36L101.365 27.8ZM105.416 35H104.136V27.8H105.304L108.072 31.368L110.696 27.8H111.832V35H110.552V29.752L108.056 33.096H108.008L105.416 29.752V35ZM119.832 33.208L120.232 34.216C119.539 34.8453 118.637 35.16 117.528 35.16C116.355 35.16 115.421 34.8187 114.728 34.136C114.024 33.4533 113.672 32.5413 113.672 31.4C113.672 30.3227 114.003 29.4267 114.664 28.712C115.315 27.9973 116.221 27.64 117.384 27.64C118.344 27.64 119.139 27.9493 119.768 28.568C120.408 29.176 120.728 29.9653 120.728 30.936C120.728 31.2453 120.701 31.5333 120.648 31.8H115.112C115.165 32.472 115.416 33 115.864 33.384C116.323 33.768 116.909 33.96 117.624 33.96C118.563 33.96 119.299 33.7093 119.832 33.208ZM117.32 28.84C116.691 28.84 116.168 29.016 115.752 29.368C115.347 29.72 115.107 30.184 115.032 30.76H119.4C119.368 30.1627 119.165 29.6933 118.792 29.352C118.429 29.0107 117.939 28.84 117.32 28.84ZM129.025 35H127.745V31.96H123.745V35H122.465V27.8H123.745V30.76H127.745V27.8H129.025V35ZM133.068 29.08H130.428V27.8H136.988V29.08H134.348V35H133.068V29.08ZM138.728 34.104C138.024 33.3787 137.672 32.4773 137.672 31.4C137.672 30.312 138.024 29.416 138.728 28.712C139.443 27.9973 140.371 27.64 141.512 27.64C142.653 27.64 143.576 27.9973 144.28 28.712C144.995 29.416 145.352 30.312 145.352 31.4C145.352 32.488 144.995 33.3893 144.28 34.104C143.576 34.808 142.653 35.16 141.512 35.16C140.381 35.16 139.453 34.808 138.728 34.104ZM139.736 29.56C139.267 30.0293 139.032 30.6427 139.032 31.4C139.032 32.1573 139.261 32.7707 139.72 33.24C140.189 33.72 140.787 33.96 141.512 33.96C142.237 33.96 142.829 33.7253 143.288 33.256C143.757 32.776 143.992 32.1573 143.992 31.4C143.992 30.664 143.757 30.0507 143.288 29.56C142.829 29.08 142.237 28.84 141.512 28.84C140.787 28.84 140.195 29.08 139.736 29.56ZM147.199 35V27.8C147.252 27.8 147.327 27.8 147.423 27.8C147.519 27.7893 147.658 27.784 147.839 27.784C148.02 27.7733 148.186 27.768 148.335 27.768C149.124 27.7467 149.615 27.736 149.807 27.736C151.876 27.736 152.911 28.3547 152.911 29.592C152.911 30.0187 152.778 30.3867 152.511 30.696C152.244 30.9947 151.898 31.176 151.471 31.24V31.272C152.591 31.4747 153.151 32.04 153.151 32.968C153.151 34.3653 152.047 35.064 149.839 35.064C149.732 35.064 149.263 35.0533 148.431 35.032C148.271 35.032 148.095 35.0267 147.903 35.016C147.711 35.016 147.562 35.0107 147.455 35C147.348 35 147.263 35 147.199 35ZM150.015 31.768H148.479V33.976C149.247 34.008 149.738 34.024 149.951 34.024C151.178 34.024 151.791 33.64 151.791 32.872C151.791 32.136 151.199 31.768 150.015 31.768ZM149.903 28.776C149.594 28.776 149.119 28.792 148.479 28.824V30.968H150.095C150.532 30.968 150.884 30.8667 151.151 30.664C151.418 30.4613 151.551 30.1893 151.551 29.848C151.551 29.1333 151.002 28.776 149.903 28.776Z" fill="#29303A"/>
<path d="M350 60C366.569 60 380 46.5685 380 30C380 13.4315 366.569 0 350 0C333.431 0 320 13.4315 320 30C320 46.5685 333.431 60 350 60Z" fill="#058BD9"/>
<path fill-rule="evenodd" clip-rule="evenodd" d="M353.479 27.7042C353.479 24.4704 350.615 21.7887 347.161 21.7887C343.707 21.7887 340.842 24.4704 340.842 27.7042C340.842 30.938 343.707 33.6197 347.161 33.6197C350.615 33.6197 353.479 30.938 353.479 27.7042ZM340 27.7042C340 23.9972 343.201 21 347.161 21C351.12 21 354.321 23.9972 354.321 27.7042C354.321 31.4113 351.12 34.4085 347.161 34.4085C343.201 34.4085 340 31.4113 340 27.7042ZM359.386 36.9912L354.668 32.5742L353.301 34.0342L358.019 38.4511L359.386 36.9912Z" fill="white"/>
</svg>
