<svg width="60" height="60" viewBox="0 0 60 60" fill="none" xmlns="http://www.w3.org/2000/svg">
<path d="M30 60C46.5685 60 60 46.5685 60 30C60 13.4315 46.5685 0 30 0C13.4315 0 0 13.4315 0 30C0 46.5685 13.4315 60 30 60Z" fill="#058BD9"/>
<path fill-rule="evenodd" clip-rule="evenodd" d="M33.479 27.7042C33.479 24.4704 30.6147 21.7887 27.1607 21.7887C23.7067 21.7887 20.8424 24.4704 20.8424 27.7042C20.8424 30.938 23.7067 33.6197 27.1607 33.6197C30.6147 33.6197 33.479 30.938 33.479 27.7042ZM20 27.7042C20 23.9972 23.2013 21 27.1607 21C31.1202 21 34.3215 23.9972 34.3215 27.7042C34.3215 31.4113 31.1202 34.4085 27.1607 34.4085C23.2013 34.4085 20 31.4113 20 27.7042ZM39.3856 36.9912L34.6679 32.5742L33.301 34.0342L38.0187 38.4511L39.3856 36.9912Z" fill="white"/>
</svg>
