<svg width="15" height="20" viewBox="0 0 15 20" fill="none" xmlns="http://www.w3.org/2000/svg">
<path d="M0.9 0.5H14.1C14.3239 0.5 14.5 0.676142 14.5 0.9V19.1C14.5 19.3239 14.3239 19.5 14.1 19.5H0.9C0.676142 19.5 0.5 19.3239 0.5 19.1V0.9C0.5 0.676142 0.676142 0.5 0.9 0.5Z" stroke="#058BD9" stroke-miterlimit="10"/>
<path d="M12 4H3V6H12V4Z" fill="#058BD9"/>
<path d="M12 7.5V7H3V8H12V7V7.5V7H3V8H12V7V7.5Z" fill="#058BD9"/>
<path d="M3 9.5V10H12V9H3V10V9.5V10H12V9H3V10V9.5Z" fill="#058BD9"/>
<path d="M3 11.5V12H12V11H3V12V11.5V12H12V11H3V12V11.5Z" fill="#058BD9"/>
<path d="M7 14H3V16H7V14Z" fill="#058BD9"/>
<path d="M12 14H8V16H12V14Z" fill="#058BD9"/>
</svg>
