<svg width="160" height="121" viewBox="0 0 160 121" fill="none" xmlns="http://www.w3.org/2000/svg">
<path opacity="0.08" d="M154.539 37.943H129.735H122.666C119.746 37.943 117.248 35.6455 117.206 32.7523C117.164 29.7741 119.534 27.3489 122.497 27.3489H123.767H138.793C141.714 27.3489 144.211 25.0514 144.254 22.1583C144.296 19.18 141.925 16.7549 138.963 16.7549H117.037C114.963 16.7549 112.931 16.1167 111.238 14.8829C102.391 8.50091 91.5131 4.75684 79.746 4.75684C54.1801 4.75684 32.7622 22.4987 26.921 46.3672C26.4977 48.0265 25.0163 49.2178 23.3231 49.2178H16.1698C13.2491 49.2178 10.8788 51.6004 10.8788 54.5361C10.8788 57.4718 13.2491 59.8544 16.1698 59.8544H25.3972H26.4554C29.376 59.8544 31.8734 62.1519 31.9157 65.045C31.958 68.0233 29.5877 70.4484 26.6247 70.4484H5.46084C2.54022 70.4484 0.0428859 72.7459 0.000558179 75.6391C-0.0417696 78.6173 2.32858 81.0424 5.29153 81.0424H29.8416H38.3072C41.2278 81.0424 43.7251 83.3399 43.7675 86.2331C43.8098 89.2113 41.4394 91.6365 38.4765 91.6365H20.2332C17.3126 91.6365 14.9423 94.0191 14.9423 96.9548C14.9423 99.8905 17.3126 102.273 20.2332 102.273H42.7939C44.7833 102.273 46.7727 102.911 48.3812 104.06C57.2277 110.357 68.0636 114.058 79.746 114.058C105.227 114.058 126.645 96.4017 132.486 72.6183C132.91 70.959 134.391 69.8102 136.084 69.8102H143.619C146.539 69.8102 149.037 67.5127 149.079 64.6195C149.121 61.6413 146.751 59.2162 143.788 59.2162H134.095H132.444C129.523 59.2162 127.026 56.9187 126.984 54.0255C126.941 51.0473 129.312 48.6221 132.275 48.6221H133.037H154.708C157.671 48.6221 160.042 46.197 159.999 43.2187C159.957 40.2405 157.46 37.943 154.539 37.943Z" fill="#058BD9"/>
<path d="M116.338 0V3.05874" stroke="#058BD9" stroke-width="2" stroke-miterlimit="10"/>
<path d="M116.338 9.09326V12.152" stroke="#058BD9" stroke-width="2" stroke-miterlimit="10"/>
<path d="M110.269 6.07617H113.325" stroke="#058BD9" stroke-width="2" stroke-miterlimit="10"/>
<path d="M119.353 6.07617H122.408" stroke="#058BD9" stroke-width="2" stroke-miterlimit="10"/>
<path d="M120.633 1.77734L118.486 3.92673" stroke="#058BD9" stroke-width="2" stroke-miterlimit="10"/>
<path d="M114.191 8.22559L112.044 10.375" stroke="#058BD9" stroke-width="2" stroke-miterlimit="10"/>
<path d="M112.044 1.77734L114.191 3.92673" stroke="#058BD9" stroke-width="2" stroke-miterlimit="10"/>
<path d="M118.486 8.22559L120.633 10.375" stroke="#058BD9" stroke-width="2" stroke-miterlimit="10"/>
<path d="M44.9468 108.107V111.125" stroke="#058BD9" stroke-width="2" stroke-miterlimit="10"/>
<path d="M44.9468 117.201V120.218" stroke="#058BD9" stroke-width="2" stroke-miterlimit="10"/>
<path d="M38.9189 114.142H41.9331" stroke="#058BD9" stroke-width="2" stroke-miterlimit="10"/>
<path d="M48.0024 114.142H51.0166" stroke="#058BD9" stroke-width="2" stroke-miterlimit="10"/>
<path d="M49.2413 109.885L47.0942 111.993" stroke="#058BD9" stroke-width="2" stroke-miterlimit="10"/>
<path d="M42.8409 116.292L40.6938 118.441" stroke="#058BD9" stroke-width="2" stroke-miterlimit="10"/>
<path d="M40.6938 109.885L42.8409 111.993" stroke="#058BD9" stroke-width="2" stroke-miterlimit="10"/>
<path d="M47.0942 116.292L49.2413 118.441" stroke="#058BD9" stroke-width="2" stroke-miterlimit="10"/>
<path d="M124.128 65.8848V68.0755" stroke="#058BD9" stroke-width="2" stroke-miterlimit="10"/>
<path d="M124.128 71.9609V74.193" stroke="#058BD9" stroke-width="2" stroke-miterlimit="10"/>
<path d="M119.999 70.0181H122.187" stroke="#058BD9" stroke-width="2" stroke-miterlimit="10"/>
<path d="M126.068 70.0181H128.298" stroke="#058BD9" stroke-width="2" stroke-miterlimit="10"/>
<path d="M47.8452 0V2.19072" stroke="#FFBA08" stroke-width="2" stroke-miterlimit="10"/>
<path d="M47.8452 6.07617V8.30822" stroke="#FFBA08" stroke-width="2" stroke-miterlimit="10"/>
<path d="M43.6748 4.1333H45.9045" stroke="#FFBA08" stroke-width="2" stroke-miterlimit="10"/>
<path d="M49.7861 4.1333H51.9745" stroke="#FFBA08" stroke-width="2" stroke-miterlimit="10"/>
<path d="M31.8747 35.3067C31.8747 35.3067 29.3147 36.0094 28.4889 38.6962C27.6631 37.0014 26.3005 35.4721 24.6489 35.3067C26.5896 34.4801 28.2411 33.116 28.654 32C29.2734 33.5294 30.3469 34.6041 31.8747 35.3067Z" fill="#058BD9"/>
<path d="M115.707 110.27H123.924" stroke="#058BD9" stroke-width="2" stroke-miterlimit="10"/>
<path d="M99.0259 114.594H129.457" stroke="#058BD9" stroke-width="2" stroke-miterlimit="10"/>
<path d="M132.388 114.594H136.393" stroke="#058BD9" stroke-width="2" stroke-miterlimit="10"/>
<path d="M126.856 110.27H139.78" stroke="#058BD9" stroke-width="2" stroke-miterlimit="10"/>
<path d="M7.78418 57.5132H14.8035" stroke="#058BD9" stroke-width="2" stroke-miterlimit="10"/>
<path d="M15.6299 62.1841H35.9858" stroke="#058BD9" stroke-width="2" stroke-miterlimit="10"/>
<path d="M11.2935 66.3501H23.474" stroke="#058BD9" stroke-width="2" stroke-miterlimit="10"/>
<path d="M27.3145 66.3501H32.6821" stroke="#058BD9" stroke-width="2" stroke-miterlimit="10"/>
<path d="M65.7295 96.8643L54.4863 96.8643L54.4863 64.8645L65.7295 64.8645L65.7295 96.8643Z" fill="#058BD9"/>
<path d="M105.946 96.8643L94.7026 96.8643L94.7026 64.8645L105.946 64.8645L105.946 96.8643Z" fill="#058BD9"/>
<path d="M49.2974 85.1199L53.2412 89.0637V64.7437L49.2974 68.6874V85.1199Z" fill="#058BD9"/>
<path d="M89.5137 85.1199L93.4575 89.0637V64.7437L89.5137 68.6874V85.1199Z" fill="#058BD9"/>
<path d="M70.7974 85.1199L66.8536 89.0637V64.7437L70.7974 68.6874V85.1199Z" fill="#058BD9"/>
<path d="M111.014 85.1199L107.07 89.0637V64.7437L111.014 68.6874V85.1199Z" fill="#058BD9"/>
<path d="M60.1168 60.7996C56.9404 60.7996 54.3654 58.2246 54.3654 55.0482C54.3654 51.8718 56.9404 49.2969 60.1168 49.2969C63.2932 49.2969 65.8682 51.8718 65.8682 55.0482C65.8682 58.2246 63.2932 60.7996 60.1168 60.7996Z" fill="#058BD9"/>
<path d="M100.333 60.7996C97.1567 60.7996 94.5817 58.2246 94.5817 55.0482C94.5817 51.8718 97.1567 49.2969 100.333 49.2969C103.509 49.2969 106.084 51.8718 106.084 55.0482C106.084 58.2246 103.509 60.7996 100.333 60.7996Z" fill="#058BD9"/>
<rect x="86.9185" y="37.189" width="17.7296" height="5.18915" fill="#FFBA08"/>
<rect x="55.7837" y="37.189" width="17.7296" height="5.18915" fill="#FFBA08"/>
<path d="M86.054 37.189H74.3784V52.7564H86.054V37.189Z" fill="#FFBA08"/>
<path d="M80.1298 33.1243C83.3062 33.1243 85.8811 30.5493 85.8811 27.3729C85.8811 24.1966 83.3062 21.6216 80.1298 21.6216C76.9534 21.6216 74.3784 24.1966 74.3784 27.3729C74.3784 30.5493 76.9534 33.1243 80.1298 33.1243Z" fill="#FFBA08"/>
</svg>
