<svg width="53" height="49" viewBox="0 0 53 49" fill="none" xmlns="http://www.w3.org/2000/svg">
<path fill-rule="evenodd" clip-rule="evenodd" d="M34.4512 16.0514L26.8512 8.55141L26.4976 8.20252L26.1464 8.55374L18.6464 16.0537L19.3535 16.7609L26.5023 9.61207L33.7488 16.7632L34.4512 16.0514ZM38.8535 12.3537L26.8535 0.353732L26.5 0.000178463L26.1464 0.353732L14.1464 12.3537L14.8535 13.0608L26.5 1.41439L38.1464 13.0608L38.8535 12.3537Z" fill="#058BD9"/>
<path d="M10.8491 41.7632H9.48906V36.6912H3.32906V41.7632H1.96906V30.5632H3.32906V35.4112H9.48906V30.5632H10.8491V41.7632ZM14.0594 36.0832L13.7234 35.0592C14.4381 34.6219 15.2381 34.4032 16.1234 34.4032C17.0941 34.4032 17.7981 34.6432 18.2354 35.1232C18.6728 35.6032 18.8914 36.3445 18.8914 37.3472V41.7632H17.6754V40.8352C17.1101 41.5285 16.3421 41.8752 15.3714 41.8752C14.7101 41.8752 14.1768 41.6779 13.7714 41.2832C13.3661 40.8779 13.1634 40.3339 13.1634 39.6512C13.1634 38.9472 13.4141 38.3925 13.9154 37.9872C14.4168 37.5712 15.0728 37.3632 15.8834 37.3632C16.6408 37.3632 17.2381 37.5179 17.6754 37.8272C17.6754 37.0165 17.5634 36.4352 17.3394 36.0832C17.1154 35.7312 16.6834 35.5552 16.0434 35.5552C15.3928 35.5552 14.7314 35.7312 14.0594 36.0832ZM15.8194 40.7232C16.5341 40.7232 17.1528 40.4139 17.6754 39.7952V38.8832C17.2274 38.5632 16.6888 38.4032 16.0594 38.4032C15.6221 38.4032 15.2541 38.5099 14.9554 38.7232C14.6674 38.9259 14.5234 39.2139 14.5234 39.5872C14.5234 39.9392 14.6354 40.2165 14.8594 40.4192C15.0941 40.6219 15.4141 40.7232 15.8194 40.7232ZM21.0348 41.7632V34.5632C21.0881 34.5632 21.1628 34.5632 21.2588 34.5632C21.3548 34.5525 21.4935 34.5472 21.6748 34.5472C21.8561 34.5365 22.0215 34.5312 22.1708 34.5312C22.9601 34.5098 23.4508 34.4992 23.6428 34.4992C25.7121 34.4992 26.7468 35.1178 26.7468 36.3552C26.7468 36.7819 26.6135 37.1499 26.3468 37.4592C26.0801 37.7579 25.7335 37.9392 25.3068 38.0032V38.0352C26.4268 38.2379 26.9868 38.8032 26.9868 39.7312C26.9868 41.1285 25.8828 41.8272 23.6748 41.8272C23.5681 41.8272 23.0988 41.8165 22.2668 41.7952C22.1068 41.7952 21.9308 41.7899 21.7388 41.7792C21.5468 41.7792 21.3975 41.7739 21.2908 41.7632C21.1841 41.7632 21.0988 41.7632 21.0348 41.7632ZM23.8508 38.5312H22.3148V40.7392C23.0828 40.7712 23.5735 40.7872 23.7868 40.7872C25.0135 40.7872 25.6268 40.4032 25.6268 39.6352C25.6268 38.8992 25.0348 38.5312 23.8508 38.5312ZM23.7388 35.5392C23.4295 35.5392 22.9548 35.5552 22.3148 35.5872V37.7312H23.9308C24.3681 37.7312 24.7201 37.6299 24.9868 37.4272C25.2535 37.2245 25.3868 36.9525 25.3868 36.6112C25.3868 35.8965 24.8375 35.5392 23.7388 35.5392ZM34.6211 39.9712L35.0211 40.9792C34.3277 41.6085 33.4264 41.9232 32.3171 41.9232C31.1437 41.9232 30.2104 41.5819 29.5171 40.8992C28.8131 40.2165 28.4611 39.3045 28.4611 38.1632C28.4611 37.0859 28.7917 36.1899 29.4531 35.4752C30.1037 34.7605 31.0104 34.4032 32.1731 34.4032C33.1331 34.4032 33.9277 34.7125 34.5571 35.3312C35.1971 35.9392 35.5171 36.7285 35.5171 37.6992C35.5171 38.0085 35.4904 38.2965 35.4371 38.5632H29.9011C29.9544 39.2352 30.2051 39.7632 30.6531 40.1472C31.1117 40.5312 31.6984 40.7232 32.4131 40.7232C33.3517 40.7232 34.0877 40.4725 34.6211 39.9712ZM32.1091 35.6032C31.4797 35.6032 30.9571 35.7792 30.5411 36.1312C30.1357 36.4832 29.8957 36.9472 29.8211 37.5232H34.1891C34.1571 36.9259 33.9544 36.4565 33.5811 36.1152C33.2184 35.7738 32.7277 35.6032 32.1091 35.6032ZM38.5336 44.9632H37.2536V34.5632H38.5336V35.4112C38.7896 35.1125 39.1416 34.8725 39.5896 34.6912C40.0376 34.4992 40.5016 34.4032 40.9816 34.4032C42.0056 34.4032 42.8109 34.7445 43.3976 35.4272C44.0056 36.0992 44.3096 36.9739 44.3096 38.0512C44.3096 39.1499 43.9629 40.0725 43.2696 40.8192C42.5869 41.5552 41.6856 41.9232 40.5656 41.9232C39.7016 41.9232 39.0242 41.7579 38.5336 41.4272V44.9632ZM40.6136 35.6032C39.7602 35.6032 39.0669 35.9338 38.5336 36.5952V40.1632C39.0989 40.5365 39.7389 40.7232 40.4536 40.7232C41.2109 40.7232 41.8136 40.4832 42.2616 40.0032C42.7202 39.5125 42.9496 38.8779 42.9496 38.0992C42.9496 37.3419 42.7416 36.7392 42.3256 36.2912C41.9096 35.8325 41.3389 35.6032 40.6136 35.6032ZM50.6656 34.5632H52.1536L49.5776 38.0352L52.3136 41.7632H50.7456L48.6336 38.8512L46.4896 41.7632H45.0016L47.7216 38.0992L45.1616 34.5632H46.7296L48.6816 37.2832L50.6656 34.5632Z" fill="#058BD9"/>
</svg>
