<svg width="13" height="16" viewBox="0 0 13 16" fill="none" xmlns="http://www.w3.org/2000/svg">
<path d="M11.529 9.69138L8.21499 14.2065C6.77685 16.1985 4.02562 16.5969 2.14978 15.0697C0.273941 13.4762 -0.0386991 10.6874 1.39944 8.62898L6.77685 1.32503C7.83982 -0.135758 9.90324 -0.467756 11.2789 0.727436C12.6545 1.85623 12.9046 3.98101 11.8416 5.5082L6.46421 12.8786C5.71387 13.8082 4.46331 14.0073 3.52539 13.2106C2.58747 12.4802 2.39989 11.0194 3.15023 10.0898L7.58971 3.91462L8.4651 4.64501L4.02562 10.7538C3.65045 11.285 3.71298 11.949 4.15067 12.3474C4.6509 12.6794 5.27618 12.613 5.65134 12.1482L10.9662 4.77781C11.7166 3.78182 11.529 2.38743 10.5911 1.59063C9.65313 0.860235 8.34004 1.05943 7.65224 1.98903L2.27483 9.35938C1.21186 10.8202 1.46197 13.0114 2.83759 14.1401C4.2132 15.2689 6.27662 15.0033 7.3396 13.5426L10.6536 8.96098L11.529 9.69138Z" fill="#808080"/>
</svg>
